<?xml version="1.0" standalone="no"?><!DOCTYPE svg PUBLIC "-//W3C//DTD SVG 1.1//EN" "http://www.w3.org/Graphics/SVG/1.1/DTD/svg11.dtd"><svg t="1497873609061" class="icon" style="" viewBox="0 0 1024 1024" version="1.1" xmlns="http://www.w3.org/2000/svg" p-id="3582" xmlns:xlink="http://www.w3.org/1999/xlink" width="200" height="200"><defs><style type="text/css"></style></defs><path d="M801.664 539.605333C802.346667 538.282667 803.456 537.173333 804.053333 535.808 815.744 511.445333 811.946667 481.621333 791.210667 462.037333L321.152 17.493333C295.509333-6.741333 255.104-5.589333 230.826667 20.010667 206.592 45.653333 207.701333 86.058667 233.344 110.293333L655.104 509.269333 235.008 914.133333C209.621333 938.624 208.853333 979.029333 233.344 1004.458667 245.888 1017.472 262.613333 1024 279.338667 1024 295.296 1024 311.253333 1018.026667 323.669333 1006.122667L789.461333 557.226667C790.357333 556.330667 790.698667 555.093333 791.594667 554.154667 792.277333 553.514667 792.96 553.045333 793.642667 552.362667 797.269333 548.565333 799.189333 543.914667 801.664 539.605333L801.664 539.605333Z" p-id="3583"></path></svg>